{"title":"Blood Out 2011 DVDRIP XViD - IMAGiNE","uid":6315796,"size":1470008158,"categoryP":"video","categoryS":"movies","magnet":"?xt=urn:btih:dea12a8d5eec8e3068b0d104e1161d76271a9d32&amp;dn=Blood+Out+2011+DVDRIP+XViD+-+IMAGiNE&amp;tr=udp%3A%2F%2Ftracker.openbittorrent.com%3A80&amp;tr=udp%3A%2F%2Fopen.demonii.com%3A1337&amp;tr=udp%3A%2F%2Ftracker.coppersurfer.tk%3A6969&amp;tr=udp%3A%2F%2Fexodus.desync.com%3A6969","seeders":0,"leechers":1,"uploader":"SAFCukO09","files":2,"time":1302703010,"description":"*********** **** **** *** ******** *********** **** *** **********\n\n*+* +*+*+* *+*+*+ *+* *+* *+* *+* *+* *+*+* *+* *+*\n\n+*+ +*+ +*+*+ +*+ +*+ +*+ +*+ +*+ *+*+*+ +*+ +*+\n\n+$+ +$+ +*+ +$+ +$++*++$++* *$* +$+ +$+ +*+ +$+ +$++*++$\n\n+$+ +$+ +$+ +$+ +$+ +$+ +$+$ +$+ +$+ +$+$+$ +$+\n\n$+$ $+$ $+$ $+$ $+$ $+$ $+$ $+$ $+$ $+$+$ $+$\n\n$$$$$$$$$$$ $$$ $$$ $$$ $$$ $$$$$$$$ $$$$$$$$$$$ $$$ $$$$ $$$$$$$$$$\n\n\n\n\n\n\n\n\n\nAnother Fine Release Brought to you from - IMAGiNE\n\n\n\n\n\n********************************************************************************************************************\n\nBlood Out 2011 DVDRIP XViD - IMAGiNE\n\n********************************************************************************************************************\n\n\n\nRipper ...........:IMAGiNE IMDB Rating.......:n/a\n\nVideo Codec.......:XVID Release Date......:14/04/11\n\nAudio Codec.......:AC-3 Theatre Date......:26/04/11\n\nAudio Bitrate.....:448 Runtime...........:1h 25mn\n\nSubtitles.........:NIL Language..........:ENGLISH\n\nResolution........:720 x 304 IMDb URL.......... http://www.imdb.com/title/tt1477675/\n\n\n\n\n\nDETAILS:\n\n\n\nVideo\n\nID : 0\n\nFormat : MPEG-4 Visual\n\nFormat profile : Advanced Simple@L5\n\nFormat settings, BVOP : Yes\n\nFormat settings, QPel : No\n\nFormat settings, GMC : No warppoints\n\nFormat settings, Matrix : Default (MPEG)\n\nMuxing mode : Packed bitstream\n\nCodec ID : XVID\n\nCodec ID/Hint : XviD\n\nDuration : 1h 25mn\n\nBit rate : 1 848 Kbps\n\nWidth : 720 pixels\n\nHeight : 304 pixels\n\nDisplay aspect ratio : 2.35:1\n\nFrame rate : 25.000 fps\n\nColor space : YUV\n\nChroma subsampling : 4:2:0\n\nBit depth : 8 bits\n\nScan type : Progressive\n\nCompression mode : Lossy\n\nBits/(Pixel*Frame) : 0.338\n\nStream size : 1.10 GiB (80%)\n\nWriting library : XviD 61\n\n\n\nAudio\n\nID : 1\n\nFormat : AC-3\n\nFormat/Info : Audio Coding 3\n\nMode extension : CM (complete main)\n\nCodec ID : 2000\n\nDuration : 1h 25mn\n\nBit rate mode : Constant\n\nBit rate : 448 Kbps\n\nChannel(s) : 6 channels\n\nChannel positions : Front: L C R, Side: L R, LFE\n\nSampling rate : 48.0 KHz\n\nBit depth : 16 bits\n\nCompression mode : Lossy\n\nStream size : 272 MiB (19%)\n\nAlignment : Aligned on interleaves\n\nInterleave, duration : 40 ms (1.00 video frame)\n\n\n\n\n\n\n\n\n\n\n\n\n\nSOURCES:\n\n\n\nVIDEO: Thankd m8ty ;-)\n\nAUDIO: Thankd m8ty ;-)\n\n\n\nNOTES:\n\n\n\nHere we go with a dvdrip of this..........Blood Out;-)\n\n\n\nSource was very nice as it was a dvdr (r4) thanks matey ,video was very nice all\n\nwe did was toned down the red and green and sharpened ,cropped and resized,etc....\n\nAudio we just needed to mux to our rip ...;-)\n\n\n\nEnjoy folks ;-)","torrent":{"xt":"urn:btih:dea12a8d5eec8e3068b0d104e1161d76271a9d32","amp;dn":"Blood+Out+2011+DVDRIP+XViD+-+IMAGiNE","amp;tr":["udp%3A%2F%2Ftracker.openbittorrent.com%3A80","udp%3A%2F%2Fopen.demonii.com%3A1337","udp%3A%2F%2Ftracker.coppersurfer.tk%3A6969","udp%3A%2F%2Fexodus.desync.com%3A6969"],"infoHash":"dea12a8d5eec8e3068b0d104e1161d76271a9d32","infoHashBuffer":{"type":"Buffer","data":[222,161,42,141,94,236,142,48,104,176,209,4,225,22,29,118,39,26,157,50]},"announce":[],"urlList":[]}}